#!OML:ASF X:\für Bonn\!DataBase\2005_08_12_Daniel\c3d\Daniel.ASF
:FULLY-SPECIFIED
:DEGREES
64
root -8.42876 19.8016 0.111138 314.825 84.53 321.139
lowerback 19.1588 -1.86613 4.92191
upperback 4.47192 -1.16283 0.776357
thorax -5.97072 -0.512761 -1.69938
lowerneck -9.69584 3.22442 -0.707003
upperneck 4.4208 4.7192 -4.18434
head 3.23486 2.16995 -0.970784
rclavicle 1.11568e-014 3.47873e-016
rhumerus -57.5068 23.7929 -98.8409
rradius 76.2881
rwrist 1.88563
rhand -36.227 28.7355
rfingers 7.12502
rthumb -9.32887 -1.03811
lclavicle 1.11568e-014 3.47873e-016
lhumerus 121.226 199.483 271.24
lradius 86.7845
lwrist 9.43782
lhand -11.3389 -10.6362
lfingers 7.12502
lthumb 14.694 18.8231
rfemur -12.1655 1.5391 23.7445
rtibia 28.108
rfoot 13.4798 -8.26976
rtoes -14.2879
lfemur -17.2609 4.69116 -16.1266
ltibia 44.7228
lfoot 6.12135 1.61634
ltoes -5.87063
65
root -8.19941 19.5954 0.118308 314.858 84.523 321.217
lowerback 19.4185 -1.88498 4.83269
upperback 4.76822 -1.18017 0.741721
thorax -5.78913 -0.503225 -1.6817
lowerneck -10.0169 3.21283 -0.652957
upperneck 3.81062 4.68002 -4.18412
head 3.08621 2.16114 -0.979926
rclavicle -9.92681e-015 7.45443e-016
rhumerus -59.1585 22.6866 -98.7074
rradius 74.6064
rwrist 0.407867
rhand -37.1887 28.8313
rfingers 7.12502
rthumb -10.2567 -0.898642
lclavicle -9.92681e-015 7.45443e-016
lhumerus 119.404 197.784 271.157
lradius 85.5089
lwrist 9.66092
lhand -12.1656 -10.4255
lfingers 7.12502
lthumb 13.8974 19.0901
rfemur -12.8513 2.18774 23.6688
rtibia 28.3876
rfoot 14.1689 -8.42481
rtoes -13.0873
lfemur -17.7938 3.51899 -16.0788
ltibia 44.7168
lfoot 6.14179 2.62227
ltoes -3.29616
66
root -7.97142 19.3772 0.125514 314.792 84.5041 321.217
lowerback 19.6854 -1.89962 4.73688
upperback 5.05148 -1.19086 0.726843
thorax -5.6238 -0.490998 -1.64035
lowerneck -10.2982 3.19591 -0.64924
upperneck 3.13308 4.6371 -4.15431
head 2.90488 2.15345 -0.971731
rclavicle 8.2682e-015 -1.21259e-014
rhumerus -60.7562 21.5107 -98.5458
rradius 73.0836
rwrist -1.30447
rhand -38.0224 28.9994
rfingers 7.12502
rthumb -11.0609 -0.68918
lclavicle 8.2682e-015 -1.21259e-014
lhumerus 117.66 196.096 271.119
lradius 84.3735
lwrist 10.2844
lhand -13.0319 -10.3097
lfingers 7.12502
lthumb 13.0624 19.2613
rfemur -13.677 2.78559 23.6197
rtibia 29.0566
rfoot 14.6205 -8.32711
rtoes -12.2338
lfemur -18.3379 2.2629 -15.9814
ltibia 44.9249
lfoot 6.10147 3.45682
ltoes -1.52304
67
root -7.74521 19.1389 0.131928 314.853 84.4894 321.397
lowerback 20.035 -1.9056 4.62049
upperback 5.30991 -1.18967 0.69695
thorax -5.52716 -0.474696 -1.60474
lowerneck -10.4501 3.16835 -0.612416
upperneck 2.31959 4.572 -4.14352
head 2.6551 2.13969 -0.979355
rclavicle -2.64321e-015 8.13775e-015
rhumerus -62.2472 20.2246 -98.3571
rradius 71.7729
rwrist -3.04822
rhand -38.6271 29.1517
rfingers 7.12502
rthumb -11.644 -0.504733
lclavicle -2.64321e-015 8.13775e-015
lhumerus 116.16 194.482 271.095
lradius 83.291
lwrist 11.1814
lhand -13.8546 -10.4056
lfingers 7.12502
lthumb 12.2693 19.2145
rfemur -14.5716 3.2901 23.5581
rtibia 30.1107
rfoot 14.7112 -7.90412
rtoes -11.1121
lfemur -18.8653 1.05845 -15.8701
ltibia 45.4345
lfoot 5.73804 3.8435
ltoes -1.09037
68
root -7.51994 18.8734 0.138921 314.821 84.4636 321.501
lowerback 20.4589 -1.89672 4.47555
upperback 5.50328 -1.16887 0.702373
thorax -5.53622 -0.452631 -1.51806
lowerneck -10.3208 3.12228 -0.667906
upperneck 1.23289 4.48053 -4.0969
head 2.2594 2.12324 -0.966072
rclavicle -1.04191e-014 1.21507e-014
rhumerus -63.6493 18.8995 -98.1034
rradius 70.708
rwrist -4.7445
rhand -38.9157 29.2197
rfingers 7.12502
rthumb -11.9223 -0.420797
lclavicle -1.04191e-014 1.21507e-014
lhumerus 114.817 192.859 271.131
lradius 82.2778
lwrist 12.1897
lhand -14.4838 -10.7709
lfingers 7.12502
lthumb 11.6626 18.8845
rfemur -15.5477 3.70124 23.5301
rtibia 31.6293
rfoot 14.0773 -7.13945
rtoes -10.4281
lfemur -19.4906 -0.0596021 -15.7068
ltibia 46.3339
lfoot 4.83977 3.86246
ltoes -1.88032
69
root -7.2946 18.5929 0.145801 314.646 84.3908 321.478
lowerback 20.9376 -1.87467 4.3586
upperback 5.62401 -1.12408 0.713089
thorax -5.65023 -0.423557 -1.44619
lowerneck -9.82603 3.05854 -0.738395
upperneck -0.173577 4.35173 -4.00514
head 1.69629 2.10109 -0.944792
rclavicle 1.46534e-014 -5.49764e-016
rhumerus -64.9876 17.5533 -97.8435
rradius 69.8935
rwrist -6.18858
rhand -38.8761 29.2564
rfingers 7.12502
rthumb -11.8842 -0.386359
lclavicle 1.46534e-014 -5.49764e-016
lhumerus 113.657 191.226 271.147
lradius 81.2441
lwrist 13.1442
lhand -14.9896 -11.3344
lfingers 7.12502
lthumb 11.1748 18.348
rfemur -16.5522 4.08919 23.56
rtibia 33.6185
rfoot 12.6247 -6.09751
rtoes -10.0006
lfemur -20.2091 -1.10906 -15.4785
ltibia 47.6618
lfoot 3.22612 3.62689
ltoes -2.58928
70
root -7.0728 18.3121 0.151731 314.554 84.338 321.561
lowerback 21.4618 -1.85205 4.21696
upperback 5.70877 -1.08244 0.728563
thorax -5.82552 -0.397911 -1.35373
lowerneck -9.24153 2.98937 -0.848871
upperneck -1.77082 4.21933 -3.87544
head 1.06669 2.08381 -0.908233
rclavicle -2.43449e-014 -1.13059e-015
rhumerus -65.8605 16.273 -97.5558
rradius 68.9876
rwrist -7.25755
rhand -38.5914 29.1536
rfingers 7.12502
rthumb -11.6096 -0.50476
lclavicle -2.43449e-014 -1.13059e-015
lhumerus 112.655 189.471 271.128
lradius 80.2129
lwrist 13.738
lhand -15.3553 -12.1632
lfingers 7.12502
lthumb 10.8221 17.538
rfemur -17.4795 4.38816 23.5808
rtibia 36.0595
rfoot 10.1172 -4.73996
rtoes -10.3344
lfemur -20.9276 -2.146 -15.2602
ltibia 49.3929
lfoot 0.804135 3.24872
ltoes -3.7855
71
root -6.85359 18.0311 0.157444 314.76 84.2513 321.941
lowerback 21.9886 -1.80673 4.06396
upperback 5.7682 -1.01527 0.75425
thorax -6.02712 -0.361088 -1.25068
lowerneck -8.74983 2.9097 -1.03633
upperneck -3.39325 4.09093 -3.69185
head 0.457019 2.07043 -0.842747
rclavicle 1.81888e-014 -2.19533e-014
rhumerus -66.1516 15.0423 -97.266
rradius 67.8672
rwrist -7.89733
rhand -38.1463 28.9982
rfingers 7.12502
rthumb -11.1804 -0.683923
lclavicle 1.81888e-014 -2.19533e-014
lhumerus 111.838 187.767 271.163
lradius 79.331
lwrist 14.1343
lhand -15.6792 -12.8666
lfingers 7.12502
lthumb 10.5097 16.8506
rfemur -18.3717 4.65755 23.6148
rtibia 38.9471
rfoot 6.76744 -3.06294
rtoes -10.766
lfemur -21.6134 -3.06947 -15.0244
ltibia 51.4916
lfoot -2.36628 2.66271
ltoes -5.47789
